<?xml version="1.0" encoding="us-ascii" standalone="no"?><svg xmlns="http://www.w3.org/2000/svg" xmlns:xlink="http://www.w3.org/1999/xlink" contentStyleType="text/css" height="1806.25px" preserveAspectRatio="none" style="width:6000px;height:1806px;background:#FFFFFF;" version="1.1" viewBox="0 0 6000 1806" width="6000px" zoomAndPan="magnify"><defs/><g><text fill="#000000" font-family="sans-serif" font-size="43.75" font-weight="bold" lengthAdjust="spacing" textLength="1125" x="2416.4063" y="76.6663">Diagrama Entidad-Relaci&#243;n - Base de Datos Hermes</text><!--class users--><g id="elem_users"><rect codeLine="13" fill="#F1F1F1" height="590.2344" id="users" rx="7.8125" ry="7.8125" style="stroke:#181818;stroke-width:1.5625;" width="881.25" x="2828.125" y="142.5293"/><ellipse cx="3200.7813" cy="192.5293" fill="#ADD1B2" rx="34.375" ry="34.375" style="stroke:#181818;stroke-width:3.125;"/><path d="M3197.2168,195.0195 L3197.2168,202.832 L3210.7422,202.832 L3210.7422,199.9512 Q3210.7422,198.0469 3211.4746,197.2168 Q3212.2559,196.3867 3213.4277,196.3867 Q3214.5996,196.3867 3215.332,197.2168 Q3216.0645,198.0469 3216.0645,199.9512 L3216.0645,208.1543 L3191.0645,208.1543 Q3189.1113,208.1543 3188.2813,207.4219 Q3187.5,206.6895 3187.5,205.4688 Q3187.5,204.2969 3188.3301,203.5645 Q3189.1602,202.832 3191.0645,202.832 L3191.8945,202.832 L3191.8945,182.0313 L3191.0645,182.0313 Q3189.1113,182.0313 3188.2813,181.2988 Q3187.5,180.5664 3187.5,179.3457 Q3187.5,178.1738 3188.2813,177.4414 Q3189.1113,176.709 3191.0645,176.709 L3214.8926,176.709 L3214.8926,184.8145 Q3214.8926,186.7188 3214.1602,187.5488 Q3213.4766,188.3301 3212.2559,188.3301 Q3211.084,188.3301 3210.3516,187.5488 Q3209.6191,186.7188 3209.6191,184.8145 L3209.6191,182.0313 L3197.2168,182.0313 L3197.2168,189.6973 L3201.8555,189.6973 Q3201.8555,187.6465 3202.2461,187.0605 Q3203.0762,185.791 3204.541,185.791 Q3205.7129,185.791 3206.4453,186.6211 Q3207.1777,187.4023 3207.1777,189.3066 L3207.1777,195.459 Q3207.1777,197.168 3206.7871,197.7539 Q3205.957,198.9746 3204.541,198.9746 Q3203.0762,198.9746 3202.2461,197.7051 Q3201.8555,197.1191 3201.8555,195.0195 L3197.2168,195.0195 Z " fill="#000000"/><text fill="#000000" font-family="sans-serif" font-size="43.75" lengthAdjust="spacing" textLength="109.375" x="3264.8438" y="210.4309">users</text><line style="stroke:#181818;stroke-width:1.5625;" x1="2831.25" x2="3706.25" y1="242.5293" y2="242.5293"/><text fill="#000000" font-family="sans-serif" font-size="43.75" lengthAdjust="spacing" text-decoration="underline" textLength="34.375" x="2846.875" y="300.4456">id</text><text fill="#000000" font-family="sans-serif" font-size="43.75" lengthAdjust="spacing" textLength="121.875" x="2893.75" y="300.4456">: UUID</text><line style="stroke:#181818;stroke-width:3.125;" x1="2831.25" x2="3706.25" y1="322.5586" y2="322.5586"/><text fill="#000000" font-family="sans-serif" font-size="43.75" lengthAdjust="spacing" textLength="843.75" x="2846.875" y="380.4749">email : VARCHAR(255) UNIQUE NOT NULL</text><text fill="#000000" font-family="sans-serif" font-size="43.75" lengthAdjust="spacing" textLength="540.625" x="2846.875" y="435.5042">full_name : VARCHAR(255)</text><text fill="#000000" font-family="sans-serif" font-size="43.75" lengthAdjust="spacing" textLength="659.375" x="2846.875" y="490.5334">password_hash : VARCHAR(255)</text><text fill="#000000" font-family="sans-serif" font-size="43.75" lengthAdjust="spacing" textLength="712.5" x="2846.875" y="545.5627">google_id : VARCHAR(255) UNIQUE</text><text fill="#000000" font-family="sans-serif" font-size="43.75" lengthAdjust="spacing" textLength="496.875" x="2846.875" y="600.592">created_at : TIMESTAMP</text><text fill="#000000" font-family="sans-serif" font-size="43.75" lengthAdjust="spacing" textLength="509.375" x="2846.875" y="655.6213">updated_at : TIMESTAMP</text><text fill="#000000" font-family="sans-serif" font-size="43.75" lengthAdjust="spacing" textLength="415.625" x="2846.875" y="710.6506">is_active : BOOLEAN</text></g><!--class events--><g id="elem_events"><rect codeLine="25" fill="#F1F1F1" height="810.3516" id="events" rx="7.8125" ry="7.8125" style="stroke:#181818;stroke-width:1.5625;" width="737.5" x="21.875" y="976.9043"/><ellipse cx="213.2813" cy="1026.9043" fill="#ADD1B2" rx="34.375" ry="34.375" style="stroke:#181818;stroke-width:3.125;"/><path d="M209.7168,1029.3945 L209.7168,1037.207 L223.2422,1037.207 L223.2422,1034.3262 Q223.2422,1032.4219 223.9746,1031.5918 Q224.7559,1030.7617 225.9277,1030.7617 Q227.0996,1030.7617 227.832,1031.5918 Q228.5645,1032.4219 228.5645,1034.3262 L228.5645,1042.5293 L203.5645,1042.5293 Q201.6113,1042.5293 200.7813,1041.7969 Q200,1041.0645 200,1039.8438 Q200,1038.6719 200.8301,1037.9395 Q201.6602,1037.207 203.5645,1037.207 L204.3945,1037.207 L204.3945,1016.4063 L203.5645,1016.4063 Q201.6113,1016.4063 200.7813,1015.6738 Q200,1014.9414 200,1013.7207 Q200,1012.5488 200.7813,1011.8164 Q201.6113,1011.084 203.5645,1011.084 L227.3926,1011.084 L227.3926,1019.1895 Q227.3926,1021.0938 226.6602,1021.9238 Q225.9766,1022.7051 224.7559,1022.7051 Q223.584,1022.7051 222.8516,1021.9238 Q222.1191,1021.0938 222.1191,1019.1895 L222.1191,1016.4063 L209.7168,1016.4063 L209.7168,1024.0723 L214.3555,1024.0723 Q214.3555,1022.0215 214.7461,1021.4355 Q215.5762,1020.166 217.041,1020.166 Q218.2129,1020.166 218.9453,1020.9961 Q219.6777,1021.7773 219.6777,1023.6816 L219.6777,1029.834 Q219.6777,1031.543 219.2871,1032.1289 Q218.457,1033.3496 217.041,1033.3496 Q215.5762,1033.3496 214.7461,1032.0801 Q214.3555,1031.4941 214.3555,1029.3945 L209.7168,1029.3945 Z " fill="#000000"/><text fill="#000000" font-family="sans-serif" font-size="43.75" lengthAdjust="spacing" textLength="328.125" x="277.3438" y="1044.8059">calendar_events</text><line style="stroke:#181818;stroke-width:1.5625;" x1="25" x2="756.25" y1="1076.9043" y2="1076.9043"/><text fill="#000000" font-family="sans-serif" font-size="43.75" lengthAdjust="spacing" text-decoration="underline" textLength="34.375" x="40.625" y="1134.8206">id</text><text fill="#000000" font-family="sans-serif" font-size="43.75" lengthAdjust="spacing" textLength="121.875" x="87.5" y="1134.8206">: UUID</text><line style="stroke:#181818;stroke-width:3.125;" x1="25" x2="756.25" y1="1156.9336" y2="1156.9336"/><text fill="#000000" font-family="sans-serif" font-size="43.75" font-style="italic" lengthAdjust="spacing" textLength="146.875" x="40.625" y="1214.8499">user_id</text><text fill="#000000" font-family="sans-serif" font-size="43.75" lengthAdjust="spacing" textLength="343.75" x="200" y="1214.8499">: UUID NOT NULL</text><text fill="#000000" font-family="sans-serif" font-size="43.75" lengthAdjust="spacing" textLength="640.625" x="40.625" y="1269.8792">title : VARCHAR(500) NOT NULL</text><text fill="#000000" font-family="sans-serif" font-size="43.75" lengthAdjust="spacing" textLength="362.5" x="40.625" y="1324.9084">description : TEXT</text><text fill="#000000" font-family="sans-serif" font-size="43.75" lengthAdjust="spacing" textLength="700" x="40.625" y="1379.9377">start_time : TIMESTAMP NOT NULL</text><text fill="#000000" font-family="sans-serif" font-size="43.75" lengthAdjust="spacing" textLength="687.5" x="40.625" y="1434.967">end_time : TIMESTAMP NOT NULL</text><text fill="#000000" font-family="sans-serif" font-size="43.75" lengthAdjust="spacing" textLength="543.75" x="40.625" y="1489.9963">event_type : VARCHAR(50)</text><text fill="#000000" font-family="sans-serif" font-size="43.75" lengthAdjust="spacing" textLength="550" x="40.625" y="1545.0256">classroom : VARCHAR(100)</text><text fill="#000000" font-family="sans-serif" font-size="43.75" lengthAdjust="spacing" textLength="537.5" x="40.625" y="1600.0549">professor : VARCHAR(255)</text><text fill="#000000" font-family="sans-serif" font-size="43.75" lengthAdjust="spacing" textLength="540.625" x="40.625" y="1655.0842">recurrence : VARCHAR(50)</text><text fill="#000000" font-family="sans-serif" font-size="43.75" lengthAdjust="spacing" textLength="496.875" x="40.625" y="1710.1135">created_at : TIMESTAMP</text><text fill="#000000" font-family="sans-serif" font-size="43.75" lengthAdjust="spacing" textLength="509.375" x="40.625" y="1765.1428">updated_at : TIMESTAMP</text></g><!--class rankings--><g id="elem_rankings"><rect codeLine="41" fill="#F1F1F1" height="645.2637" id="rankings" rx="7.8125" ry="7.8125" style="stroke:#181818;stroke-width:1.5625;" width="746.875" x="1601.5625" y="1059.7168"/><ellipse cx="1877.3438" cy="1109.7168" fill="#ADD1B2" rx="34.375" ry="34.375" style="stroke:#181818;stroke-width:3.125;"/><path d="M1873.7793,1112.207 L1873.7793,1120.0195 L1887.3047,1120.0195 L1887.3047,1117.1387 Q1887.3047,1115.2344 1888.0371,1114.4043 Q1888.8184,1113.5742 1889.9902,1113.5742 Q1891.1621,1113.5742 1891.8945,1114.4043 Q1892.627,1115.2344 1892.627,1117.1387 L1892.627,1125.3418 L1867.627,1125.3418 Q1865.6738,1125.3418 1864.8438,1124.6094 Q1864.0625,1123.877 1864.0625,1122.6563 Q1864.0625,1121.4844 1864.8926,1120.752 Q1865.7227,1120.0195 1867.627,1120.0195 L1868.457,1120.0195 L1868.457,1099.2188 L1867.627,1099.2188 Q1865.6738,1099.2188 1864.8438,1098.4863 Q1864.0625,1097.7539 1864.0625,1096.5332 Q1864.0625,1095.3613 1864.8438,1094.6289 Q1865.6738,1093.8965 1867.627,1093.8965 L1891.4551,1093.8965 L1891.4551,1102.002 Q1891.4551,1103.9063 1890.7227,1104.7363 Q1890.0391,1105.5176 1888.8184,1105.5176 Q1887.6465,1105.5176 1886.9141,1104.7363 Q1886.1816,1103.9063 1886.1816,1102.002 L1886.1816,1099.2188 L1873.7793,1099.2188 L1873.7793,1106.8848 L1878.418,1106.8848 Q1878.418,1104.834 1878.8086,1104.248 Q1879.6387,1102.9785 1881.1035,1102.9785 Q1882.2754,1102.9785 1883.0078,1103.8086 Q1883.7402,1104.5898 1883.7402,1106.4941 L1883.7402,1112.6465 Q1883.7402,1114.3555 1883.3496,1114.9414 Q1882.5195,1116.1621 1881.1035,1116.1621 Q1879.6387,1116.1621 1878.8086,1114.8926 Q1878.418,1114.3066 1878.418,1112.207 L1873.7793,1112.207 Z " fill="#000000"/><text fill="#000000" font-family="sans-serif" font-size="43.75" lengthAdjust="spacing" textLength="168.75" x="1941.4063" y="1127.6184">rankings</text><line style="stroke:#181818;stroke-width:1.5625;" x1="1604.6875" x2="2345.3125" y1="1159.7168" y2="1159.7168"/><text fill="#000000" font-family="sans-serif" font-size="43.75" lengthAdjust="spacing" text-decoration="underline" textLength="34.375" x="1620.3125" y="1217.6331">id</text><text fill="#000000" font-family="sans-serif" font-size="43.75" lengthAdjust="spacing" textLength="121.875" x="1667.1875" y="1217.6331">: UUID</text><line style="stroke:#181818;stroke-width:3.125;" x1="1604.6875" x2="2345.3125" y1="1239.7461" y2="1239.7461"/><text fill="#000000" font-family="sans-serif" font-size="43.75" font-style="italic" lengthAdjust="spacing" textLength="146.875" x="1620.3125" y="1297.6624">user_id</text><text fill="#000000" font-family="sans-serif" font-size="43.75" lengthAdjust="spacing" textLength="512.5" x="1779.6875" y="1297.6624">: UUID UNIQUE NOT NULL</text><text fill="#000000" font-family="sans-serif" font-size="43.75" lengthAdjust="spacing" textLength="590.625" x="1620.3125" y="1352.6917">points : INTEGER DEFAULT 0</text><text fill="#000000" font-family="sans-serif" font-size="43.75" lengthAdjust="spacing" textLength="562.5" x="1620.3125" y="1407.7209">level : INTEGER DEFAULT 1</text><text fill="#000000" font-family="sans-serif" font-size="43.75" lengthAdjust="spacing" textLength="446.875" x="1620.3125" y="1462.7502">achievements : JSONB</text><text fill="#000000" font-family="sans-serif" font-size="43.75" lengthAdjust="spacing" textLength="709.375" x="1620.3125" y="1517.7795">daily_streak : INTEGER DEFAULT 0</text><text fill="#000000" font-family="sans-serif" font-size="43.75" lengthAdjust="spacing" textLength="512.5" x="1620.3125" y="1572.8088">last_activity : TIMESTAMP</text><text fill="#000000" font-family="sans-serif" font-size="43.75" lengthAdjust="spacing" textLength="496.875" x="1620.3125" y="1627.8381">created_at : TIMESTAMP</text><text fill="#000000" font-family="sans-serif" font-size="43.75" lengthAdjust="spacing" textLength="509.375" x="1620.3125" y="1682.8674">updated_at : TIMESTAMP</text></g><!--class friendships--><g id="elem_friendships"><rect codeLine="54" fill="#F1F1F1" height="425.1465" id="friendships" rx="7.8125" ry="7.8125" style="stroke:#181818;stroke-width:1.5625;" width="565.625" x="3207.8125" y="1169.0918"/><ellipse cx="3369.5313" cy="1219.0918" fill="#ADD1B2" rx="34.375" ry="34.375" style="stroke:#181818;stroke-width:3.125;"/><path d="M3365.9668,1221.582 L3365.9668,1229.3945 L3379.4922,1229.3945 L3379.4922,1226.5137 Q3379.4922,1224.6094 3380.2246,1223.7793 Q3381.0059,1222.9492 3382.1777,1222.9492 Q3383.3496,1222.9492 3384.082,1223.7793 Q3384.8145,1224.6094 3384.8145,1226.5137 L3384.8145,1234.7168 L3359.8145,1234.7168 Q3357.8613,1234.7168 3357.0313,1233.9844 Q3356.25,1233.252 3356.25,1232.0313 Q3356.25,1230.8594 3357.0801,1230.127 Q3357.9102,1229.3945 3359.8145,1229.3945 L3360.6445,1229.3945 L3360.6445,1208.5938 L3359.8145,1208.5938 Q3357.8613,1208.5938 3357.0313,1207.8613 Q3356.25,1207.1289 3356.25,1205.9082 Q3356.25,1204.7363 3357.0313,1204.0039 Q3357.8613,1203.2715 3359.8145,1203.2715 L3383.6426,1203.2715 L3383.6426,1211.377 Q3383.6426,1213.2813 3382.9102,1214.1113 Q3382.2266,1214.8926 3381.0059,1214.8926 Q3379.834,1214.8926 3379.1016,1214.1113 Q3378.3691,1213.2813 3378.3691,1211.377 L3378.3691,1208.5938 L3365.9668,1208.5938 L3365.9668,1216.2598 L3370.6055,1216.2598 Q3370.6055,1214.209 3370.9961,1213.623 Q3371.8262,1212.3535 3373.291,1212.3535 Q3374.4629,1212.3535 3375.1953,1213.1836 Q3375.9277,1213.9648 3375.9277,1215.8691 L3375.9277,1222.0215 Q3375.9277,1223.7305 3375.5371,1224.3164 Q3374.707,1225.5371 3373.291,1225.5371 Q3371.8262,1225.5371 3370.9961,1224.2676 Q3370.6055,1223.6816 3370.6055,1221.582 L3365.9668,1221.582 Z " fill="#000000"/><text fill="#000000" font-family="sans-serif" font-size="43.75" lengthAdjust="spacing" textLength="215.625" x="3433.5938" y="1236.9934">friendships</text><line style="stroke:#181818;stroke-width:1.5625;" x1="3210.9375" x2="3770.3125" y1="1269.0918" y2="1269.0918"/><text fill="#000000" font-family="sans-serif" font-size="43.75" lengthAdjust="spacing" text-decoration="underline" textLength="34.375" x="3226.5625" y="1327.0081">id</text><text fill="#000000" font-family="sans-serif" font-size="43.75" lengthAdjust="spacing" textLength="121.875" x="3273.4375" y="1327.0081">: UUID</text><line style="stroke:#181818;stroke-width:3.125;" x1="3210.9375" x2="3770.3125" y1="1349.1211" y2="1349.1211"/><text fill="#000000" font-family="sans-serif" font-size="43.75" font-style="italic" lengthAdjust="spacing" textLength="146.875" x="3226.5625" y="1407.0374">user_id</text><text fill="#000000" font-family="sans-serif" font-size="43.75" lengthAdjust="spacing" textLength="343.75" x="3385.9375" y="1407.0374">: UUID NOT NULL</text><text fill="#000000" font-family="sans-serif" font-size="43.75" font-style="italic" lengthAdjust="spacing" textLength="171.875" x="3226.5625" y="1462.0667">friend_id</text><text fill="#000000" font-family="sans-serif" font-size="43.75" lengthAdjust="spacing" textLength="343.75" x="3410.9375" y="1462.0667">: UUID NOT NULL</text><text fill="#000000" font-family="sans-serif" font-size="43.75" lengthAdjust="spacing" textLength="443.75" x="3226.5625" y="1517.0959">status : VARCHAR(20)</text><text fill="#000000" font-family="sans-serif" font-size="43.75" lengthAdjust="spacing" textLength="496.875" x="3226.5625" y="1572.1252">created_at : TIMESTAMP</text></g><!--class chat--><g id="elem_chat"><rect codeLine="63" fill="#F1F1F1" height="480.1758" id="chat" rx="7.8125" ry="7.8125" style="stroke:#181818;stroke-width:1.5625;" width="590.625" x="4720.3125" y="1140.9668"/><ellipse cx="4882.0313" cy="1190.9668" fill="#ADD1B2" rx="34.375" ry="34.375" style="stroke:#181818;stroke-width:3.125;"/><path d="M4878.4668,1193.457 L4878.4668,1201.2695 L4891.9922,1201.2695 L4891.9922,1198.3887 Q4891.9922,1196.4844 4892.7246,1195.6543 Q4893.5059,1194.8242 4894.6777,1194.8242 Q4895.8496,1194.8242 4896.582,1195.6543 Q4897.3145,1196.4844 4897.3145,1198.3887 L4897.3145,1206.5918 L4872.3145,1206.5918 Q4870.3613,1206.5918 4869.5313,1205.8594 Q4868.75,1205.127 4868.75,1203.9063 Q4868.75,1202.7344 4869.5801,1202.002 Q4870.4102,1201.2695 4872.3145,1201.2695 L4873.1445,1201.2695 L4873.1445,1180.4688 L4872.3145,1180.4688 Q4870.3613,1180.4688 4869.5313,1179.7363 Q4868.75,1179.0039 4868.75,1177.7832 Q4868.75,1176.6113 4869.5313,1175.8789 Q4870.3613,1175.1465 4872.3145,1175.1465 L4896.1426,1175.1465 L4896.1426,1183.252 Q4896.1426,1185.1563 4895.4102,1185.9863 Q4894.7266,1186.7676 4893.5059,1186.7676 Q4892.334,1186.7676 4891.6016,1185.9863 Q4890.8691,1185.1563 4890.8691,1183.252 L4890.8691,1180.4688 L4878.4668,1180.4688 L4878.4668,1188.1348 L4883.1055,1188.1348 Q4883.1055,1186.084 4883.4961,1185.498 Q4884.3262,1184.2285 4885.791,1184.2285 Q4886.9629,1184.2285 4887.6953,1185.0586 Q4888.4277,1185.8398 4888.4277,1187.7441 L4888.4277,1193.8965 Q4888.4277,1195.6055 4888.0371,1196.1914 Q4887.207,1197.4121 4885.791,1197.4121 Q4884.3262,1197.4121 4883.4961,1196.1426 Q4883.1055,1195.5566 4883.1055,1193.457 L4878.4668,1193.457 Z " fill="#000000"/><text fill="#000000" font-family="sans-serif" font-size="43.75" lengthAdjust="spacing" textLength="240.625" x="4946.0938" y="1208.8684">chat_history</text><line style="stroke:#181818;stroke-width:1.5625;" x1="4723.4375" x2="5307.8125" y1="1240.9668" y2="1240.9668"/><text fill="#000000" font-family="sans-serif" font-size="43.75" lengthAdjust="spacing" text-decoration="underline" textLength="34.375" x="4739.0625" y="1298.8831">id</text><text fill="#000000" font-family="sans-serif" font-size="43.75" lengthAdjust="spacing" textLength="121.875" x="4785.9375" y="1298.8831">: UUID</text><line style="stroke:#181818;stroke-width:3.125;" x1="4723.4375" x2="5307.8125" y1="1320.9961" y2="1320.9961"/><text fill="#000000" font-family="sans-serif" font-size="43.75" font-style="italic" lengthAdjust="spacing" textLength="146.875" x="4739.0625" y="1378.9124">user_id</text><text fill="#000000" font-family="sans-serif" font-size="43.75" lengthAdjust="spacing" textLength="343.75" x="4898.4375" y="1378.9124">: UUID NOT NULL</text><text fill="#000000" font-family="sans-serif" font-size="43.75" lengthAdjust="spacing" textLength="546.875" x="4739.0625" y="1433.9417">message : TEXT NOT NULL</text><text fill="#000000" font-family="sans-serif" font-size="43.75" lengthAdjust="spacing" textLength="553.125" x="4739.0625" y="1488.9709">response : TEXT NOT NULL</text><text fill="#000000" font-family="sans-serif" font-size="43.75" lengthAdjust="spacing" textLength="434.375" x="4739.0625" y="1544.0002">intent : VARCHAR(50)</text><text fill="#000000" font-family="sans-serif" font-size="43.75" lengthAdjust="spacing" textLength="496.875" x="4739.0625" y="1599.0295">created_at : TIMESTAMP</text></g><g id="elem_GMN12"><path d="M3820.3125,345.6543 L3820.3125,425.3418 L3709.5,437.8418 L3820.3125,450.3418 L3820.3125,530.2002 A0,0 0 0 0 3820.3125,530.2002 L4504.6875,530.2002 A0,0 0 0 0 4504.6875,530.2002 L4504.6875,376.9043 L4473.4375,345.6543 L3820.3125,345.6543 A0,0 0 0 0 3820.3125,345.6543 " fill="#FEFFDD" style="stroke:#181818;stroke-width:1.5625;"/><path d="M4473.4375,345.6543 L4473.4375,376.9043 L4504.6875,376.9043 L4473.4375,345.6543 " fill="#FEFFDD" style="stroke:#181818;stroke-width:1.5625;"/><text fill="#000000" font-family="sans-serif" font-size="40.625" lengthAdjust="spacing" textLength="521.875" x="3839.0625" y="403.4515">Usuario principal del sistema</text><text fill="#000000" font-family="sans-serif" font-size="40.625" lengthAdjust="spacing" textLength="618.75" x="3839.0625" y="454.5502">- Autenticaci&#243;n con Google OAuth</text><text fill="#000000" font-family="sans-serif" font-size="40.625" lengthAdjust="spacing" textLength="428.125" x="3839.0625" y="505.6488">- O con email/password</text></g><g id="elem_GMN15"><path d="M870.3125,1264.4043 L870.3125,1369.0918 L759.6875,1381.5918 L870.3125,1394.0918 L870.3125,1500.0488 A0,0 0 0 0 870.3125,1500.0488 L1492.1875,1500.0488 A0,0 0 0 0 1492.1875,1500.0488 L1492.1875,1295.6543 L1460.9375,1264.4043 L870.3125,1264.4043 A0,0 0 0 0 870.3125,1264.4043 " fill="#FEFFDD" style="stroke:#181818;stroke-width:1.5625;"/><path d="M1460.9375,1264.4043 L1460.9375,1295.6543 L1492.1875,1295.6543 L1460.9375,1264.4043 " fill="#FEFFDD" style="stroke:#181818;stroke-width:1.5625;"/><text fill="#000000" font-family="sans-serif" font-size="40.625" lengthAdjust="spacing" textLength="406.25" x="889.0625" y="1322.2015">Eventos del calendario</text><text fill="#000000" font-family="sans-serif" font-size="40.625" lengthAdjust="spacing" textLength="500" x="889.0625" y="1373.3002">- Clases, ex&#225;menes, tareas</text><text fill="#000000" font-family="sans-serif" font-size="40.625" lengthAdjust="spacing" textLength="478.125" x="889.0625" y="1424.3988">- Extra&#237;dos de fotos (OCR)</text><text fill="#000000" font-family="sans-serif" font-size="40.625" lengthAdjust="spacing" textLength="556.25" x="889.0625" y="1475.4974">- Recurrentes (semanal, diario)</text></g><g id="elem_GMN18"><path d="M2457.8125,1237.8418 L2457.8125,1369.0918 L2349.125,1381.5918 L2457.8125,1394.0918 L2457.8125,1524.585 A0,0 0 0 0 2457.8125,1524.585 L3098.4375,1524.585 A0,0 0 0 0 3098.4375,1524.585 L3098.4375,1269.0918 L3067.1875,1237.8418 L2457.8125,1237.8418 A0,0 0 0 0 2457.8125,1237.8418 " fill="#FEFFDD" style="stroke:#181818;stroke-width:1.5625;"/><path d="M3067.1875,1237.8418 L3067.1875,1269.0918 L3098.4375,1269.0918 L3067.1875,1237.8418 " fill="#FEFFDD" style="stroke:#181818;stroke-width:1.5625;"/><text fill="#000000" font-family="sans-serif" font-size="40.625" lengthAdjust="spacing" textLength="443.75" x="2476.5625" y="1295.639">Sistema de gamificaci&#243;n</text><text fill="#000000" font-family="sans-serif" font-size="40.625" lengthAdjust="spacing" textLength="384.375" x="2476.5625" y="1346.7377">- Puntos acumulados</text><text fill="#000000" font-family="sans-serif" font-size="40.625" lengthAdjust="spacing" textLength="318.75" x="2476.5625" y="1397.8363">- Nivel del usuario</text><text fill="#000000" font-family="sans-serif" font-size="40.625" lengthAdjust="spacing" textLength="575" x="2476.5625" y="1448.9349">- Logros desbloqueados (JSON)</text><text fill="#000000" font-family="sans-serif" font-size="40.625" lengthAdjust="spacing" textLength="250" x="2476.5625" y="1500.0336">- Racha diaria</text></g><g id="elem_GMN21"><path d="M3882.8125,1289.4043 L3882.8125,1369.0918 L3774.2188,1381.5918 L3882.8125,1394.0918 L3882.8125,1473.9502 A0,0 0 0 0 3882.8125,1473.9502 L4610.9375,1473.9502 A0,0 0 0 0 4610.9375,1473.9502 L4610.9375,1320.6543 L4579.6875,1289.4043 L3882.8125,1289.4043 A0,0 0 0 0 3882.8125,1289.4043 " fill="#FEFFDD" style="stroke:#181818;stroke-width:1.5625;"/><path d="M4579.6875,1289.4043 L4579.6875,1320.6543 L4610.9375,1320.6543 L4579.6875,1289.4043 " fill="#FEFFDD" style="stroke:#181818;stroke-width:1.5625;"/><text fill="#000000" font-family="sans-serif" font-size="40.625" lengthAdjust="spacing" textLength="412.5" x="3901.5625" y="1347.2015">Relaciones de amistad</text><text fill="#000000" font-family="sans-serif" font-size="40.625" lengthAdjust="spacing" textLength="662.5" x="3901.5625" y="1398.3002">- status: pending, accepted, rejected</text><text fill="#000000" font-family="sans-serif" font-size="40.625" lengthAdjust="spacing" textLength="478.125" x="3901.5625" y="1449.3988">- Para competir en ranking</text></g><g id="elem_GMN24"><path d="M5420.3125,1264.4043 L5420.3125,1369.0918 L5311.0313,1381.5918 L5420.3125,1394.0918 L5420.3125,1500.0488 A0,0 0 0 0 5420.3125,1500.0488 L5979.6875,1500.0488 A0,0 0 0 0 5979.6875,1500.0488 L5979.6875,1295.6543 L5948.4375,1264.4043 L5420.3125,1264.4043 A0,0 0 0 0 5420.3125,1264.4043 " fill="#FEFFDD" style="stroke:#181818;stroke-width:1.5625;"/><path d="M5948.4375,1264.4043 L5948.4375,1295.6543 L5979.6875,1295.6543 L5948.4375,1264.4043 " fill="#FEFFDD" style="stroke:#181818;stroke-width:1.5625;"/><text fill="#000000" font-family="sans-serif" font-size="40.625" lengthAdjust="spacing" textLength="493.75" x="5439.0625" y="1322.2015">Historial de conversaciones</text><text fill="#000000" font-family="sans-serif" font-size="40.625" lengthAdjust="spacing" textLength="409.375" x="5439.0625" y="1373.3002">- Mensajes del usuario</text><text fill="#000000" font-family="sans-serif" font-size="40.625" lengthAdjust="spacing" textLength="437.5" x="5439.0625" y="1424.3988">- Respuestas de Gemini</text><text fill="#000000" font-family="sans-serif" font-size="40.625" lengthAdjust="spacing" textLength="378.125" x="5439.0625" y="1475.4974">- Intenci&#243;n detectada</text></g><!--link users to events--><g id="link_users_events"><path codeLine="77" d="M2803.0642,468.3054 C2292.3767,513.0554 1463.1563,634.7793 815.625,976.9043 C796.7813,986.873 825.3647,967.3196 807.0835,979.1634 " fill="none" id="users-events" style="stroke:#181818;stroke-width:3.125;"/><line style="stroke:#181818;stroke-width:3.125;" x1="2814.4253" x2="2816.6076" y1="454.7619" y2="479.6665"/><line style="stroke:#181818;stroke-width:3.125;" x1="2805.0861" x2="2807.2684" y1="455.5803" y2="480.4849"/><line style="stroke:#181818;stroke-width:3.125;" x1="2803.0642" x2="2827.9688" y1="468.3054" y2="466.123"/><line style="stroke:#181818;stroke-width:3.125;" x1="780.8566" x2="770.0699" y1="996.1549" y2="1025.4842"/><line style="stroke:#181818;stroke-width:3.125;" x1="780.8566" x2="749.6801" y1="996.1549" y2="994.0119"/><line style="stroke:#181818;stroke-width:3.125;" x1="780.8566" x2="759.875" y1="996.1549" y2="1009.748"/><ellipse cx="796.5927" cy="985.96" fill="none" rx="12.5" ry="12.5" style="stroke:#181818;stroke-width:3.125;"/><text fill="#000000" font-family="sans-serif" font-size="40.625" lengthAdjust="spacing" textLength="87.5" x="1128.125" y="872.2015">tiene</text></g><!--link users to rankings--><g id="link_users_rankings"><path codeLine="78" d="M2805.7519,704.112 C2666.2207,789.237 2535.3438,875.5605 2403.125,976.9043 C2369.5625,1002.623 2354.5512,1014.2265 2321.2387,1042.9765 " fill="none" id="users-rankings" style="stroke:#181818;stroke-width:3.125;"/><line style="stroke:#181818;stroke-width:3.125;" x1="2809.9127" x2="2822.9329" y1="686.931" y2="708.2728"/><line style="stroke:#181818;stroke-width:3.125;" x1="2801.9095" x2="2814.9297" y1="691.8135" y2="713.1554"/><line style="stroke:#181818;stroke-width:3.125;" x1="2805.7519" x2="2827.0938" y1="704.112" y2="691.0918"/><line style="stroke:#181818;stroke-width:3.125;" x1="2319.9426" x2="2303.6086" y1="1060.6066" y2="1041.6805"/><line style="stroke:#181818;stroke-width:3.125;" x1="2327.0399" x2="2310.7059" y1="1054.4814" y2="1035.5552"/><line style="stroke:#181818;stroke-width:3.125;" x1="2321.2387" x2="2302.3125" y1="1042.9765" y2="1059.3105"/><text fill="#000000" font-family="sans-serif" font-size="40.625" lengthAdjust="spacing" textLength="87.5" x="2612.5" y="872.2015">tiene</text></g><!--link users to friendships--><g id="link_users_friendships"><path codeLine="79" d="M3243.4831,759.2726 C3244.6394,809.3664 3248.8125,835.5605 3259.375,883.1543 C3281.1563,981.373 3299.136,1032.9791 3342.511,1118.5728 " fill="none" id="users-friendships" style="stroke:#181818;stroke-width:3.125;"/><line style="stroke:#181818;stroke-width:3.125;" x1="3230.698" x2="3255.6914" y1="747.0644" y2="746.4875"/><line style="stroke:#181818;stroke-width:3.125;" x1="3230.9144" x2="3255.9077" y1="756.4369" y2="755.86"/><line style="stroke:#181818;stroke-width:3.125;" x1="3243.4831" x2="3242.9063" y1="759.2726" y2="734.2793"/><line style="stroke:#181818;stroke-width:3.125;" x1="3356.6368" x2="3384.6626" y1="1146.4479" y2="1160.2725"/><line style="stroke:#181818;stroke-width:3.125;" x1="3356.6368" x2="3351.2124" y1="1146.4479" y2="1177.2236"/><line style="stroke:#181818;stroke-width:3.125;" x1="3356.6368" x2="3367.9375" y1="1146.4479" y2="1168.748"/><ellipse cx="3348.1613" cy="1129.7229" fill="none" rx="12.5" ry="12.5" style="stroke:#181818;stroke-width:3.125;"/><text fill="#000000" font-family="sans-serif" font-size="40.625" lengthAdjust="spacing" textLength="90.625" x="3262.5" y="872.2015">env&#237;a</text></g><!--link users to friendships--><g id="link_users_friendships"><path codeLine="80" d="M3351.8644,757.8326 C3359.8019,789.3013 3361.4688,796.623 3368.75,826.9043 C3395.75,939.4355 3411.8389,1010.4299 3434.1826,1113.5549 " fill="none" id="users-friendships-1" style="stroke:#181818;stroke-width:3.125;"/><line style="stroke:#181818;stroke-width:3.125;" x1="3336.6868" x2="3360.9276" y1="748.7694" y2="742.655"/><line style="stroke:#181818;stroke-width:3.125;" x1="3338.9797" x2="3363.2204" y1="757.8596" y2="751.7453"/><line style="stroke:#181818;stroke-width:3.125;" x1="3351.8644" x2="3345.75" y1="757.8326" y2="733.5918"/><line style="stroke:#181818;stroke-width:3.125;" x1="3440.7999" x2="3464.4186" y1="1144.0962" y2="1164.5589"/><line style="stroke:#181818;stroke-width:3.125;" x1="3440.7999" x2="3427.7689" y1="1144.0962" y2="1172.4997"/><line style="stroke:#181818;stroke-width:3.125;" x1="3440.7999" x2="3446.0938" y1="1144.0962" y2="1168.5293"/><ellipse cx="3436.8295" cy="1125.7714" fill="none" rx="12.5" ry="12.5" style="stroke:#181818;stroke-width:3.125;"/><text fill="#000000" font-family="sans-serif" font-size="40.625" lengthAdjust="spacing" textLength="109.375" x="3384.375" y="872.2015">recibe</text></g><!--link users to chat--><g id="link_users_chat"><path codeLine="81" d="M3732.5892,718.9555 C3751.183,727.7055 3747.1875,725.4043 3765.625,733.1543 C4147.625,893.7793 4314.3438,757.0605 4665.625,976.9043 C4733.8125,1019.5918 4759.2923,1037.0823 4811.7923,1097.7698 " fill="none" id="users-chat" style="stroke:#181818;stroke-width:3.125;"/><line style="stroke:#181818;stroke-width:3.125;" x1="3715.9565" x2="3726.6014" y1="724.9432" y2="702.3228"/><line style="stroke:#181818;stroke-width:3.125;" x1="3724.4392" x2="3735.0841" y1="728.9351" y2="706.3146"/><line style="stroke:#181818;stroke-width:3.125;" x1="3732.5892" x2="3709.9688" y1="718.9555" y2="708.3105"/><line style="stroke:#181818;stroke-width:3.125;" x1="4832.2375" x2="4862.774" y1="1121.4036" y2="1128.0434"/><line style="stroke:#181818;stroke-width:3.125;" x1="4832.2375" x2="4834.4135" y1="1121.4036" y2="1152.5777"/><line style="stroke:#181818;stroke-width:3.125;" x1="4832.2375" x2="4848.5938" y1="1121.4036" y2="1140.3105"/><ellipse cx="4819.9704" cy="1107.2233" fill="none" rx="12.5" ry="12.5" style="stroke:#181818;stroke-width:3.125;"/><text fill="#000000" font-family="sans-serif" font-size="40.625" lengthAdjust="spacing" textLength="159.375" x="4475" y="872.2015">conversa</text></g><!--SRC=[hLRDRjj64BxpAIRgeH8W8KeBNmpN06tHjWfPIcKfo8qOaoDgOvBBxYvT2t4UfW-GKn_1BzRPNIcYOycmaUWWKFFD3h_vvcVr9gM5A0bcU9rJkyI2kYdff0D9Zbg3DG1gQ5bZ2uwEe3th_d9s5lAd0yV7mPlr-Kg90jKglg5L-wu3H_NntT7RUeilf2AHbTzmON5n70JwHfGLAYmWhGJytky7WH4c9nW8pDYC49L6f9ZsffHZ8Xx-Aw479wW9KdP28pLSa2f81y6lyCUBF-mSZMV3GJY8hbvtC20cP5RGgZKftRBok2Vu7C0Z7KJQWKEOpuS31dez_g82HSws3-7qz2ASjdyxEEZ0V3pyQnx1U3A3yNmqOhT5dUUna_wngutFLVb7gZHUebu-XJCfivnYaUv-2NiaYj1G6gDXbzdmChgQXPVl6QYhT3SWT8o94RUMpSbaCeh2SV1bgqA2EPKfgfXksUJry8yl4AJP5bR4UElI5CHtn3QbWtw_qyHjTofH6I5BIpxwE6EZDgXCR8IJyLj2pMFC-tdSfX6RLVNutLPeDnvAogA1lEixg59oGLfBzRGyYf9QAIgJ7G5VMPT61HIMF4IPbtxpumV5VzgKbHIsfeSm7C-YysWAW-Wid8zcq6SmPwdo7TWxnZ1P2eOByiV_l9gCJspDU1HMiJQSzys-gAYDxpsRvsDPVa2lXH9SURqKbPUiyVldjMpJpRzWZoEtgQbrirUUwuVcu2tHn4kXZLGhbuSr_Bm4UADgp6WzJqr4aQvagNT1t29CxwND_UNLAtiQZSBJuMJywftjD_JzVQydFs_Mqo6q31U6MWtq_duxGRjmFjri5tQXylRXApxlmtClhh-Fuyh5O2BBMpPpYA2KXa29R6b0BlojmkhDTOrAI5lMCX4LvhplSj1SURvFR5KXhAti8bdVZnmHpjrD01E6bivduipk1dgxkKMubrAmB_t-rLuXFXVP1xvYxHitcrv85_2KnvDq5-ZkuLyURll86vTGEpIwCmeVlgRkBFUS3TAUd4ux3fsk5w4XjcecLMBUXLJOu9szh3QLuH1NFdiREyD2B3Qvk-ZlQySPaxgeSsGApZeMTaVPH6elgBEEPAOSHtsToxzhikxGjajgpPJN5tfck9TOeznyoFzHaQo8fSViUCHJ5ypF-Y5KxCs9T9bYGXLFHfU7wXCb_EGJu3z4NAwY8YCKNrERpFSIiBt49o_SDX2kGs3JLvwAYtj9fSPFf9-eCEMHhedfEShdL8XIE61e1zftLKg66MBQaE5_]--></g></svg>